<svg width="181" height="39" viewBox="0 0 181 39" fill="none" xmlns="http://www.w3.org/2000/svg">
<g clip-path="url(#clip0_2051_3945)">
<path d="M7.47586 0.422058H37.2662C41.137 0.422063 44.2886 3.34875 44.2886 6.94828V31.2655C44.2886 33.0316 43.5049 34.7463 42.1371 35.9681L42.1363 35.9688L41.5413 36.503C38.7989 38.9557 34.508 38.9485 31.7776 36.4814C30.7165 35.5221 29.0278 35.4912 27.9242 36.3998L27.2726 36.934L27.2718 36.9345C25.941 38.03 24.2757 38.5779 22.6097 38.5779C22.5916 38.5779 22.5698 38.5765 22.5261 38.5735C22.4886 38.5708 22.4313 38.5668 22.3711 38.5668H22.3591L22.3473 38.5673C22.2405 38.5723 22.1986 38.5779 22.1322 38.5779C20.4618 38.5779 18.7971 38.03 17.4707 36.935L17.4694 36.934L16.8178 36.3998C15.7314 35.5053 14.078 35.5212 13.0143 36.4371L12.9642 36.4814C10.2337 38.9485 5.94293 38.9559 3.20056 36.503L2.60564 35.9688L2.60475 35.9681L2.47828 35.852C1.1888 34.6389 0.453369 32.9764 0.453369 31.2655V6.94828C0.453371 3.35221 3.60126 0.422058 7.47586 0.422058ZM7.47586 4.31787C5.91471 4.31787 4.64243 5.49945 4.64243 6.95206V31.2692C4.64243 31.9584 4.93542 32.6313 5.4598 33.1226L5.51134 33.1696L6.10467 33.7022L6.10483 33.7024C7.20848 34.6922 8.94013 34.6867 10.0417 33.6941L10.0419 33.694C12.6645 31.3271 16.8605 31.2386 19.5975 33.4927L19.5984 33.4934L20.2498 34.0274C20.8534 34.5258 21.6258 34.7311 22.3711 34.6722C23.1161 34.7311 23.8883 34.5258 24.4919 34.0274L24.4921 34.0276L25.1437 33.4934L25.1446 33.4927C27.8386 31.2739 31.9466 31.3249 34.576 33.5847L34.7001 33.694C35.7986 34.6877 37.5299 34.6912 38.6364 33.7031L38.6373 33.7022L39.232 33.1682C39.7821 32.6751 40.0996 31.9822 40.0996 31.2692V6.95206C40.0996 5.49947 38.8272 4.31787 37.2662 4.31787H7.47586ZM153.723 7.08067V10.4011H146.348V31.9568H141.706V10.4011H134.331V7.08067H153.723ZM121.363 7.08067C124.609 7.08067 126.988 7.93297 128.55 9.27695C130.11 10.619 130.903 12.4906 130.903 14.6189C130.903 16.4771 130.224 18.3342 128.716 19.726C127.212 21.1148 124.838 22.0817 121.363 22.0817H116.271V31.9568H111.628V7.08067H121.363ZM81.9721 7.08067L90.6579 25.9505L91.0747 26.856L91.4915 25.9505L100.177 7.08067H105.686V31.9568H101.044V15.6497L100.172 15.4886L92.8722 31.9568H89.2769L81.9371 15.4879L81.0651 15.6497V31.9568H76.4226V7.08067H81.9721ZM70.4804 7.04308V10.4011H59.973V17.6931H69.2905V20.9383H59.973V28.599H70.4804V31.9568H55.3267V7.04308H70.4804ZM116.275 18.7615H121.582V18.748C122.992 18.6871 124.098 18.3345 124.871 17.6698C125.731 16.9299 126.103 15.8698 126.103 14.6151C126.103 13.3606 125.732 12.2927 124.873 11.5436C124.021 10.7991 122.76 10.4349 121.128 10.4349H116.275V18.7615ZM166.546 23.3221L166.495 23.2303L157.442 7.08067H162.672L168.496 18.5945L168.907 19.408L169.316 18.5935L175.104 7.08067H180.253L171.24 23.231L171.188 23.3225V31.9568H166.546V23.3221Z" fill="#D482B6" stroke="#E80184"/>
</g>
<defs>
<clipPath id="clip0_2051_3945">
<rect width="181" height="39" fill="white"/>
</clipPath>
</defs>
</svg>
